<svg xmlns="http://www.w3.org/2000/svg" version="1.1" xmlns:xlink="http://www.w3.org/1999/xlink" xmlns:svgjs="http://svgjs.dev/svgjs" width="100%" height="100%" viewBox="0 0 1000 600"><rect width="1000" height="600" x="0" y="0" fill="#2b3252"/><g><circle r="166.66666666666666" cx="391.27355448404944" cy="413.4958066980786" fill="#fad744" transform="matrix(0.5565278727239694,0,0,0.5565278727239694,0,69.87806397933136)"/><path d="M249.45603276232305 485.7946792247465L249.45603276232305 485.7946792247465Q249.02499828586429 482.4900815718961 249.45603276232305 479.1854839190457L249.45603276232305 479.1854839190457Q255.2318947468703 478.5533000202395 258.76637745383204 477.71996669908594Q262.2721245290299 476.91536900969624 264.7433888607267 474.7314609956386Q267.2433888241875 472.5475529815809 269.51350373353694 468.12226568993776Q271.7836186428863 463.6682427665306 274.88706687338936 455.59353024087005L274.88706687338936 455.59353024087005L319.57097426627985 340.96709513460627Q321.8698248073932 340.1337618134526 325.05947993318796 339.73146296875785Q328.27787069074657 339.32916412406297 330.547985600096 339.32916412406297L330.547985600096 339.32916412406297L375.03074357063906 457.4613463055246Q377.93304237879465 464.90387493237904 379.8008584434493 469.15674843343874Q381.63993887633995 473.3808863027345 383.9387894174533 475.24870236738906Q386.20890432680267 477.1165184320437 389.7146514020005 477.8349092261416Q393.24913410896227 478.5533000202395 399.45603056996833 479.1854839190457L399.45603056996833 479.1854839190457Q399.8583294146631 482.4900815718961 399.45603056996833 485.7946792247465L399.45603056996833 485.7946792247465Q392.21465136546135 485.7946792247465 384.5422376844955 485.5935298023991Q376.8985596352937 485.3923803800517 369.22614595432793 485.3923803800517L369.22614595432793 485.3923803800517Q361.3813184827786 485.3923803800517 353.42154848417374 485.5935298023991Q345.43304285380486 485.7946792247465 337.5882153822556 485.7946792247465L337.5882153822556 485.7946792247465Q336.95603148344946 482.6912309942435 337.5882153822556 479.1854839190457L337.5882153822556 479.1854839190457Q347.7318933949182 478.15100117554465 351.6399393148109 477.20272532733543Q355.5767208664675 476.28318511089003 355.5767208664675 472.3464035592335L355.5767208664675 472.3464035592335Q355.5767208664675 470.7084725486902 354.97327259942523 468.6395070616882Q354.3410887006191 466.5705415746862 353.30660595711805 463.46709334418324L353.30660595711805 463.46709334418324L341.52499693391223 431.5992777179996L294.9732734763671 431.5992777179996L284.6284460413571 460.1337600595689Q283.1629288213974 464.07054161122545 282.4445380272994 466.65674846997797Q281.7261472332015 469.2429553287305 281.7261472332015 471.3119208157325L281.7261472332015 471.3119208157325Q281.7261472332015 475.88088626619526 285.9502851024973 477.001575904988Q290.203158603557 478.15100117554465 299.9158021397608 479.1854839190457L299.9158021397608 479.1854839190457Q300.34683661621955 482.6912309942435 299.9158021397608 485.7946792247465L299.9158021397608 485.7946792247465Q292.9043079893651 485.7946792247465 286.06522762955296 485.5935298023991Q279.22614726974075 485.3923803800517 272.2146531193451 485.3923803800517L272.2146531193451 485.3923803800517Q266.4100555030339 485.3923803800517 261.0364923631815 485.5935298023991Q255.66292922332906 485.7946792247465 249.45603276232305 485.7946792247465ZM318.134192678084 367.86364646563226L298.0767217068701 422.8923812935328L338.4215487034092 422.8923812935328L318.134192678084 367.86364646563226ZM533.3066033262924 442.7774384741632L533.3066033262924 442.7774384741632Q530.8353389945955 460.9670933807225 529.5709711969832 479.7889321860879L529.5709711969832 479.7889321860879Q518.1916610184722 483.12226547070225 506.4100519952664 485.7946792247465Q494.6284429720605 488.49582861055467 481.18016730654745 488.49582861055467L481.18016730654745 488.49582861055467Q458.1916618954141 488.49582861055467 441.3525816817589 479.3866333413931Q424.48476583633976 470.27743807223146 415.1744211448307 453.8406567032711Q405.8640764533218 437.37513970254685 405.8640764533218 415.04755382198357L405.8640764533218 415.04755382198357Q405.8640764533218 392.4900828873089 415.1744211448307 375.219968197195Q424.48476583633976 357.949853507081 441.4387885770507 348.20847433911325Q458.4215469495254 338.49583080290944 481.3813167288949 338.49583080290944L481.3813167288949 338.49583080290944Q489.85832809925034 338.49583080290944 496.26637398260374 339.5303135464104Q502.67441986595713 340.5647962899114 511.7836151351188 342.6337617769134L511.7836151351188 342.6337617769134Q515.9215461091228 343.467095098067 519.0249943396258 344.27169278745663Q522.1284425701288 345.1050261086103 525.4330402229792 345.1050261086103L525.4330402229792 345.1050261086103Q526.4675229664803 345.1050261086103 527.7318907640926 345.0188192133185Q528.967522929941 344.90387668626283 529.8008562510946 344.7027272639154L529.8008562510946 344.7027272639154Q530.2031550957894 353.811922533077 530.6054539404843 363.52456606928087Q531.0364884169429 373.23720960548474 531.8698217380966 383.8119220946061L531.8698217380966 383.8119220946061Q527.7318907640926 384.41537036164834 524.829591955937 384.2142209393009L524.829591955937 384.2142209393009Q516.7548794302763 346.7716927509174 482.41579947239586 346.7716927509174L482.41579947239586 346.7716927509174Q468.5364893304241 346.7716927509174 458.82384579422023 352.2601984178255Q449.1112022580164 357.7199684529697 443.10545521935785 367.14525567153436Q437.0997081806992 376.5705428900991 434.3985587948911 388.3521519133049Q431.72614504084675 400.1337609365108 431.72614504084675 412.9785883349815L431.72614504084675 412.9785883349815Q431.72614504084675 431.16824324154084 437.0997081806992 446.48433497170845Q442.47327132055165 461.80042670187606 454.0537309214101 470.9096219710376Q465.66292615403245 480.01881724019927 483.8525810605917 480.01881724019927L483.8525810605917 480.01881724019927Q501.0364888554139 480.01881724019927 511.2663737633683 470.9096219710376Q521.5249943030865 461.80042670187606 526.0652241217854 442.5475534200518L526.0652241217854 442.5475534200518Q527.7318907640926 442.5475534200518 529.4847643016915 442.5475534200518Q531.2376378392904 442.5475534200518 533.3066033262924 442.7774384741632Z " fill="#2b3252" transform="matrix(0.5565278727239694,0,0,0.5565278727239694,0,69.87806397933136)"/><path d="M641.4685523085709 486.29526556946144L641.4685523085709 486.29526556946144Q641.0785802079247 483.2869093644763 641.4685523085709 479.8885810588449L641.4685523085709 479.8885810588449Q651.1064342245419 478.88579565718317 655.3125618815119 477.9665757056599Q659.5186895384819 477.0752109041828 660.5214749401437 474.0668546991977Q661.5242603418053 471.0584984942125 661.5242603418053 463.84401463225737L661.5242603418053 463.84401463225737L661.5242603418053 370.5849722777174Q661.5242603418053 362.1448618137312 660.5214749401437 358.55154745777673Q659.5186895384819 354.93037795177605 655.3961273316504 353.8440270999759Q651.301420274865 352.72982109812955 642.0813656095863 351.9220217467909L642.0813656095863 351.9220217467909Q641.663538358894 348.91366554180576 642.0813656095863 345.5153372361744L642.0813656095863 345.5153372361744Q646.8724514175258 345.5153372361744 650.1872142730186 345.5989026863129Q653.5019771285115 345.7103232864975 657.1231466345122 345.7103232864975Q660.7164609904667 345.7103232864975 666.2317806996061 345.8217438866821Q671.7471004087456 345.9053093368206 680.9671550740243 345.9053093368206L680.9671550740243 345.9053093368206Q692.4156217429955 345.9053093368206 704.254060512613 345.8217438866821Q716.0646441321844 345.7103232864975 726.2039187489863 345.7103232864975Q736.3431933657881 345.7103232864975 742.63845727622 345.5989026863129Q748.961576336698 345.5153372361744 749.3794035873905 345.5153372361744L749.3794035873905 345.5153372361744Q750.3821889890522 353.11979319877577 751.579960441037 361.3649176124388Q752.7777318930218 369.5821868760557 754.1704893953298 378.80224154133424L754.1704893953298 378.80224154133424Q752.5827458426987 378.99722759165735 750.883581689883 378.99722759165735Q749.1565623870212 378.99722759165735 747.5688188343902 378.80224154133424L747.5688188343902 378.80224154133424Q742.3599057757584 365.3760592190857 735.3404079641264 359.9443049600847L735.3404079641264 359.9443049600847Q728.098068952125 354.12257860043746 712.666315826553 354.12257860043746L712.666315826553 354.12257860043746L683.5855391783632 354.12257860043746L683.5855391783632 410.8913743945093L696.8167354502887 410.8913743945093Q706.4546173662596 410.8913743945093 711.4685443745682 409.5821823423398Q716.4824713828768 408.27299029017036 718.8780142868465 403.76045598269263Q721.3014123408623 399.2479216752149 722.6941698431702 389.4429088589669L722.6941698431702 389.4429088589669Q726.3153393491709 388.83009555795144 729.5186816044792 389.4429088589669L729.5186816044792 389.4429088589669Q729.3236955541561 397.85516417290694 729.2122749539715 402.7576705810309Q729.1008543537868 407.688032139201 729.1008543537868 410.50140229386307Q729.1008543537868 413.28691729847895 729.1008543537868 415.7103153524948L729.1008543537868 415.7103153524948Q729.1008543537868 417.91087220614133 729.1008543537868 420.7242423608034Q729.1008543537868 423.5376125154654 729.2122749539715 428.55153952377407Q729.3236955541561 433.5654665320826 729.5186816044792 442.17270789634574L729.5186816044792 442.17270789634574Q726.510325399494 442.7855211973612 722.6941698431702 442.17270789634574L722.6941698431702 442.17270789634574Q721.4963983911854 431.5598957287592 719.0730003371696 426.8245202209122Q716.6774574332 422.11699986311135 711.969937075399 420.9192284111265Q707.2624167175982 419.7214569591417 698.627320203289 419.7214569591417L698.627320203289 419.7214569591417L683.5855391783632 419.7214569591417L683.5855391783632 461.22563052791844Q683.5855391783632 467.43732898821185 683.9755112790094 470.86351244388936Q684.3933385297017 474.2618407495208 686.3989093330251 476.26741155284424L686.3989093330251 476.26741155284424Q688.4044801363486 478.0779963058445 692.499187193134 478.69080960686006Q696.6217493999656 479.2757677578294 704.4490465629361 479.8885810588449L704.4490465629361 479.8885810588449Q705.0340047139055 483.0919233141532 704.4490465629361 486.29526556946144L704.4490465629361 486.29526556946144Q700.2429189059662 486.29526556946144 694.2262064959959 486.2117001193229Q688.2094940860255 486.1002795191383 682.2763471261937 485.98885891895367Q676.371055316408 485.9052934688152 672.3599137097611 485.9052934688152L672.3599137097611 485.9052934688152Q668.5437581534374 485.9052934688152 662.9170178441133 485.98885891895367Q657.3181326848353 486.1002795191383 651.6078269253728 486.2117001193229Q645.869666015864 486.29526556946144 641.4685523085709 486.29526556946144ZM834.0033494276212 488.1058503224617L834.0033494276212 488.1058503224617Q820.7721531556957 488.1058503224617 817.3459697000181 474.87465405053626L817.3459697000181 474.87465405053626Q803.1119880264309 488.495822423108 788.2651930518283 488.495822423108L788.2651930518283 488.495822423108Q778.042352984888 488.495822423108 770.9392897231174 482.3955445629992Q763.8083713113008 476.26741155284424 763.8083713113008 465.4317581848884L763.8083713113008 465.4317581848884Q763.8083713113008 438.9693656410375 817.7637969507106 432.14485387972854L817.7637969507106 432.14485387972854Q817.7637969507106 427.32591292174305 817.847362400849 422.31198591343446Q817.9587830010337 417.29805890512586 817.9587830010337 411.69917374584793L817.9587830010337 411.69917374584793Q817.9587830010337 404.6796759342159 812.8334353925404 400.7520997777075Q807.7359429340934 396.85237877124524 800.5214590721382 396.85237877124524L800.5214590721382 396.85237877124524Q795.2846908634604 396.85237877124524 791.6913765075059 398.4679774739224L791.6913765075059 398.4679774739224Q791.6913765075059 403.06407723153865 789.6858057041824 407.88301818952414Q787.6802349008589 412.7019591475096 784.1704859950429 416.01672200300254Q780.6607370892269 419.3036297084493 775.6468100809183 419.3036297084493L775.6468100809183 419.3036297084493Q771.2178412235791 419.3036297084493 768.7108777194247 416.796666204295Q766.2039142152704 414.2897027001407 766.2039142152704 410.6963883441862L766.2039142152704 410.6963883441862Q766.2039142152704 405.8774473862007 770.7164485227482 401.5598991290461Q775.228982830226 397.24235087189146 782.248480641858 394.1504292167678Q789.26797845349 391.030652411598 796.9002895661375 389.2200676585977Q804.5326006787851 387.4373380556435 810.5493130887554 387.4373380556435L810.5493130887554 387.4373380556435Q817.9587830010337 387.4373380556435 824.2819020615117 390.1392876101209Q830.6050211219898 392.84123716459834 834.504742128452 398.1615708234147Q838.4044631349143 403.481904482231 838.4044631349143 411.2813464951555L838.4044631349143 411.2813464951555Q838.4044631349143 416.10028745314105 838.2094770845912 423.81616401592703Q838.0144910342681 431.5598957287592 837.9030704340835 440.27855769320695Q837.819504983945 448.9972196576547 837.6245189336219 456.8245168206253Q837.4016777332525 464.65181398359596 837.4016777332525 469.4428997915353L837.4016777332525 469.4428997915353Q837.4016777332525 475.877439452198 843.0284180425766 475.877439452198L843.0284180425766 475.877439452198Q846.6495875485773 475.877439452198 854.0590574608556 473.4540413981822L854.0590574608556 473.4540413981822Q854.8668568121942 474.4568267998439 855.1732634627019 475.6824534018749Q855.4518149631635 476.8802248538597 855.6746561635329 477.8830102555214L855.6746561635329 477.8830102555214Q850.6607291552242 483.2869093644763 845.1454094460847 485.7103074184921Q839.6300897369453 488.1058503224617 834.0033494276212 488.1058503224617ZM817.3459697000181 469.4428997915353L817.3459697000181 469.4428997915353L817.7637969507106 439.3593377416837Q799.2958324701073 441.7827357956995 792.3877552586598 447.18663490465434Q785.4796780472124 452.61838916365537 785.4796780472124 461.03064447759533L785.4796780472124 461.03064447759533Q785.4796780472124 468.0501422892273 789.1844130033516 471.7548772453665Q792.8891479594906 475.4596122015056 798.5158882688148 475.4596122015056L798.5158882688148 475.4596122015056Q802.1092026247692 475.4596122015056 806.621736932247 473.87186864887457Q811.1342712397247 472.25626994619734 817.3459697000181 469.4428997915353ZM943.9197715097641 409.8885889928476L911.6077974562198 485.0974941174766L900.5771580379409 487.2980509711232L869.2958245361045 408.8858035911859Q867.7080809834735 404.48468988389277 865.8974962304732 402.17271243006155Q864.0869114774728 399.8607349762304 861.1899758726723 398.6629635242455Q858.2651851178256 397.4651920722607 852.6662999585476 396.85237877124524L852.6662999585476 396.85237877124524Q852.2484727078553 394.0390086165832 852.6662999585476 390.44569426062867L852.6662999585476 390.44569426062867Q858.4601711681487 390.44569426062867 864.7832902286267 390.6406803109518Q871.1064092891048 390.8356663612749 877.3181077493982 390.8356663612749L877.3181077493982 390.8356663612749Q883.1398341090454 390.8356663612749 889.9643458703544 390.6406803109518Q896.7888576316633 390.44569426062867 901.3849573892795 390.44569426062867L901.3849573892795 390.44569426062867Q901.997770690295 393.6490365159369 901.3849573892795 396.85237877124524L901.3849573892795 396.85237877124524Q894.5604456279706 397.24235087189146 892.0534821238163 398.24513627355316Q889.5465186196619 399.2479216752149 889.5465186196619 402.4791190805693L889.5465186196619 402.4791190805693Q889.5465186196619 404.06686263320034 890.2707525208622 406.4902606872162Q890.9671312720161 408.8858035911859 891.5520894229854 410.50140229386307L891.5520894229854 410.50140229386307Q892.1649027240009 412.08914584649415 893.9754874770013 416.90808680447964Q895.7860722300017 421.7270277624651 898.2930357341559 428.05014682294313Q900.7999992383102 434.3454107333751 903.390528192603 441.0863570445456Q906.008912296942 447.7994482056698 908.3208897507731 453.3983333649478Q910.6050120545582 459.0250736742719 912.0256247069123 462.42340197990325L912.0256247069123 462.42340197990325Q916.2317523638823 452.8133752139784 922.137044173668 439.1643516913606Q928.0701911334997 425.54318331878886 933.6690762927777 411.5041876955248L933.6690762927777 411.5041876955248Q934.6718616944394 408.6908175408628 935.3960955956396 406.37884008703156Q936.0924743467936 404.06686263320034 936.0924743467936 402.6741051308924L936.0924743467936 402.6741051308924Q936.0924743467936 399.8607349762304 933.4740902424545 398.6629635242455Q930.8835612881618 397.4651920722607 924.0590495268528 396.85237877124524L924.0590495268528 396.85237877124524Q923.8640634765299 393.6490365159369 924.0590495268528 390.44569426062867L924.0590495268528 390.44569426062867Q929.2679625854846 390.44569426062867 933.9754829432854 390.6406803109518Q938.6830033010863 390.8356663612749 945.3125290120721 390.8356663612749L945.3125290120721 390.8356663612749Q948.3208852170573 390.8356663612749 951.0228347715347 390.72424576109023Q953.7247843260121 390.6406803109518 961.1621093883365 390.44569426062867L961.1621093883365 390.44569426062867Q961.5520814889827 393.84402256626004 961.1621093883365 396.85237877124524L961.1621093883365 396.85237877124524Q952.7219989243505 397.4651920722607 949.7136427193652 400.5571137273844Q946.70528651438 403.6768905325541 943.9197715097641 409.8885889928476L943.9197715097641 409.8885889928476ZM1012.3041648730842 486.29526556946144L1012.3041648730842 486.29526556946144Q1006.6774245637602 486.29526556946144 1000.6607121537899 486.1002795191383Q994.6439997438196 485.9052934688152 987.6245019321875 485.9052934688152L987.6245019321875 485.9052934688152Q981.2178174215709 485.9052934688152 974.6997123107698 486.1002795191383Q968.1816071999687 486.29526556946144 962.1648947899982 486.29526556946144L962.1648947899982 486.29526556946144Q961.5520814889827 483.0919233141532 962.1648947899982 480.08356710916803L962.1648947899982 480.08356710916803Q968.9894065513072 479.6935950085218 972.1927488066154 478.77437505699857Q975.3960910619238 477.8830102555214 976.3988764635855 474.87465405053626Q977.4016618652472 471.8662978455511 977.4016618652472 465.2367721345653L977.4016618652472 465.2367721345653L977.4016618652472 420.306415110111Q977.4016618652472 412.5069730971865 976.7888485642317 408.6908175408628Q976.2038904132623 404.874661984539 973.0841136080925 403.3704838820464Q969.9921919529689 401.86630577955384 962.3598808403214 400.8635203778921L962.3598808403214 400.8635203778921Q961.7470675393059 398.05015022323005 962.3598808403214 395.6546073192604L962.3598808403214 395.6546073192604Q971.1899634049537 394.0390086165832 979.2122466182475 391.64346571261353Q987.2345298315413 389.2200676585977 994.6439997438196 386.43455265398177L994.6439997438196 386.43455265398177L998.0701831994971 387.63232410596663Q997.8473419991277 393.84402256626004 997.7637765489893 399.2479216752149Q997.6523559488047 404.6796759342159 997.6523559488047 409.49861689220137L997.6523559488047 409.49861689220137L997.6523559488047 463.2312013312419Q997.6523559488047 471.0584984942125 998.571575900328 474.4568267998439Q999.462940701805 477.8830102555214 1002.5827175069749 478.77437505699857Q1005.6746391620984 479.6935950085218 1012.3041648730842 480.08356710916803L1012.3041648730842 480.08356710916803Q1012.8891230240536 483.0919233141532 1012.3041648730842 486.29526556946144ZM972.1927488066154 352.33984899748333L972.1927488066154 352.33984899748333Q972.1927488066154 346.5181226378361 976.2874558634009 342.50698103118924Q980.4100180702322 338.49583942454234 986.2317444298795 338.49583942454234L986.2317444298795 338.49583942454234Q991.8306295891574 338.49583942454234 995.9531917959889 342.50698103118924Q1000.0757540028205 346.5181226378361 1000.0757540028205 352.117007797114L1000.0757540028205 352.117007797114Q1000.0757540028205 357.35377600579193 996.0646123961736 361.6434691129004Q992.0534707895268 365.961017370055 985.8139171791871 365.961017370055L985.8139171791871 365.961017370055Q980.2150320199092 365.961017370055 976.2038904132623 361.9498757634081Q972.1927488066154 357.93873415676126 972.1927488066154 352.33984899748333ZM1103.5576364243007 466.65738478691935L1103.5576364243007 466.65738478691935Q1105.5632072276244 469.0529276908891 1106.565992629286 471.25348454453564L1106.565992629286 471.25348454453564Q1089.9086129016828 488.495822423108 1068.4601473661405 488.495822423108L1068.4601473661405 488.495822423108Q1054.6161377931994 488.495822423108 1044.7832698269053 481.8941518621683Q1034.9504018606112 475.2646261511825 1029.6579233518414 464.2339867329036Q1024.3375896930247 453.2033473146247 1024.3375896930247 439.7771649923761L1024.3375896930247 439.7771649923761Q1024.3375896930247 425.1253560680965 1030.3543021029952 413.28691729847895Q1036.3710145129658 401.4763336789076 1047.2902333310599 394.4568358672756Q1058.2373072992004 387.4373380556435 1072.4712889727875 387.4373380556435L1072.4712889727875 387.4373380556435Q1079.880758885066 387.4373380556435 1087.513069997713 389.5264743091054Q1095.1175259603147 391.64346571261353 1100.3542941689925 396.0445794199066Q1105.5632072276244 400.47354827724587 1105.5632072276244 407.27020488850866L1105.5632072276244 407.27020488850866Q1105.5632072276244 412.7019591475096 1102.3598649723158 415.51532930217166Q1099.1286675669617 418.30084430678755 1094.7275538596682 418.30084430678755L1094.7275538596682 418.30084430678755Q1088.7108414496981 418.30084430678755 1084.5047137927281 412.7855245976481Q1080.298586135758 407.27020488850866 1080.298586135758 398.05015022323005L1080.298586135758 398.05015022323005Q1076.6774166297573 395.6546073192604 1070.660704219787 395.6546073192604L1070.660704219787 395.6546073192604Q1063.4462203578319 395.6546073192604 1058.5158587996616 399.2479216752149Q1053.6133523915378 402.86909118121554 1050.493575586368 408.8858035911859Q1047.4016539312443 414.9025160011562 1045.9810412788902 421.8105932126036Q1044.5882837765826 428.7465255740971 1044.5882837765826 435.3481961350368L1044.5882837765826 435.3481961350368Q1044.5882837765826 446.601676753685 1048.4044393329063 455.40390416827125Q1052.2205948892301 464.2339867329036 1059.630064801508 469.3593343413968Q1067.0395347137865 474.4568267998439 1078.0701741320654 474.4568267998439L1078.0701741320654 474.4568267998439Q1084.5047137927281 474.4568267998439 1090.6049916528368 472.67409719688976Q1096.733124662992 470.86351244388936 1103.5576364243007 466.65738478691935ZM1167.3180748799584 488.495822423108L1167.3180748799584 488.495822423108Q1152.6941211057251 488.495822423108 1141.7470471375846 482.2005585126761Q1130.8278283194904 475.877439452198 1124.8111159095201 464.73537943373447Q1118.7944034995498 453.62117456531706 1118.7944034995498 439.1643516913606L1118.7944034995498 439.1643516913606Q1118.7944034995498 423.5376125154654 1125.1175225600277 411.89415979617104Q1131.4406416205059 400.2507070768766 1142.861253139431 393.84402256626004Q1154.281864658356 387.4373380556435 1169.1286596329587 387.4373380556435L1169.1286596329587 387.4373380556435Q1183.7804685572382 387.4373380556435 1194.6161219251942 393.84402256626004Q1205.4239201431037 400.2507070768766 1211.440632553074 411.5041876955248Q1217.4573449630445 422.7298131641268 1217.4573449630445 436.96379483771403L1217.4573449630445 436.96379483771403Q1217.4573449630445 451.6156037619936 1211.1620810526126 463.3426219314265Q1204.8389619921345 475.0696401008594 1193.6133365235323 481.7827312619837Q1182.3598559048842 488.495822423108 1167.3180748799584 488.495822423108ZM1141.468495637123 436.7688087873909L1141.468495637123 436.7688087873909Q1141.468495637123 457.21448892127154 1148.1815867982473 469.1643482910737Q1154.8946779593716 481.0863525108297 1168.3208602816203 481.0863525108297L1168.3208602816203 481.0863525108297Q1181.1620844528993 481.0863525108297 1187.9865962142085 469.749306442043Q1194.8111079755172 458.41226037325634 1194.8111079755172 439.3593377416837L1194.8111079755172 439.3593377416837Q1194.8111079755172 419.1086436581262 1187.9865962142085 407.07521883818555Q1181.1620844528993 395.0417940182449 1168.125874231297 395.0417940182449L1168.125874231297 395.0417940182449Q1155.284650060018 395.0417940182449 1148.3765728485705 406.0724334365238Q1141.468495637123 417.10307285480275 1141.468495637123 436.7688087873909ZM1293.6690354893353 486.29526556946144L1293.6690354893353 486.29526556946144Q1293.2790633886889 483.0919233141532 1293.6690354893353 480.08356710916803L1293.6690354893353 480.08356710916803Q1299.9085890996748 479.6935950085218 1302.9169453046602 478.77437505699857Q1305.9253015096451 477.8830102555214 1306.9280869113068 474.87465405053626Q1307.9308723129684 471.8662978455511 1307.9308723129684 465.2367721345653L1307.9308723129684 465.2367721345653L1307.9308723129684 424.7353839674503Q1307.9308723129684 412.7019591475096 1304.1982822067835 406.7688121876778Q1300.493547250644 400.8635203778921 1289.462907832365 400.8635203778921L1289.462907832365 400.8635203778921Q1283.641181472718 400.8635203778921 1278.2372823637634 402.9805117814002Q1272.8333832548083 405.0696480348621 1266.3988435941455 410.8913743945093L1266.3988435941455 410.8913743945093L1266.3988435941455 463.2312013312419Q1266.3988435941455 471.0584984942125 1267.3180635456688 474.4568267998439Q1268.209428347146 477.8830102555214 1271.217784552131 478.77437505699857Q1274.2261407571164 479.6935950085218 1280.632825267733 480.08356710916803L1280.632825267733 480.08356710916803Q1281.050652518425 483.0919233141532 1280.632825267733 486.29526556946144L1280.632825267733 486.29526556946144Q1275.0339401084552 486.29526556946144 1268.9058070983 486.1002795191383Q1262.8055292381914 485.9052934688152 1255.786031426559 485.9052934688152L1255.786031426559 485.9052934688152Q1249.3514917658963 485.9052934688152 1243.139793305603 486.1002795191383Q1236.9280948453097 486.29526556946144 1230.9113824353394 486.29526556946144L1230.9113824353394 486.29526556946144Q1230.2985691343238 483.0919233141532 1230.9113824353394 480.08356710916803L1230.9113824353394 480.08356710916803Q1237.7358941966481 479.6935950085218 1240.9392364519563 478.77437505699857Q1244.1425787072649 477.8830102555214 1245.1453641089265 474.87465405053626Q1246.1481495105882 471.8662978455511 1246.1481495105882 465.2367721345653L1246.1481495105882 465.2367721345653L1246.1481495105882 420.306415110111Q1246.1481495105882 412.5069730971865 1245.451770759434 408.6908175408628Q1244.7553920082803 404.874661984539 1241.6356152031103 403.3704838820464Q1238.5158383979406 401.86630577955384 1231.1063684856622 400.8635203778921L1231.1063684856622 400.8635203778921Q1230.493555184647 398.05015022323005 1231.1063684856622 395.6546073192604L1231.1063684856622 395.6546073192604Q1248.3487063642347 392.22842386358286 1262.8055292381914 386.43455265398177L1262.8055292381914 386.43455265398177L1266.2038575438228 387.63232410596663L1266.2038575438228 402.6741051308924Q1275.4239122091012 394.2339946669063 1284.2539947737337 390.8356663612749Q1293.0840773383661 387.4373380556435 1301.1063605516597 387.4373380556435L1301.1063605516597 387.4373380556435Q1314.3375568235851 387.4373380556435 1321.357054635217 395.236780068568Q1328.3765524468495 403.06407723153865 1328.3765524468495 417.7158861558182L1328.3765524468495 417.7158861558182L1328.3765524468495 463.2312013312419Q1328.3765524468495 471.0584984942125 1329.2679172483263 474.4568267998439Q1330.1871371998495 477.8830102555214 1333.195493404835 478.77437505699857Q1336.2038496098198 479.6935950085218 1342.8055201707593 480.08356710916803L1342.8055201707593 480.08356710916803Q1343.2233474214518 483.0919233141532 1342.8055201707593 486.29526556946144L1342.8055201707593 486.29526556946144Q1336.788807760789 486.29526556946144 1331.0785020013268 486.1002795191383Q1325.368196241864 485.9052934688152 1317.7358851292165 485.9052934688152L1317.7358851292165 485.9052934688152Q1310.3264152169381 485.9052934688152 1304.8110955077987 486.1002795191383Q1299.2957757986592 486.29526556946144 1293.6690354893353 486.29526556946144ZM1361.4684707016859 473.67688259855146L1361.4684707016859 473.67688259855146Q1361.4684707016859 467.43732898821185 1365.674598358656 463.1476358811034Q1369.880726015626 458.83008762394877 1375.8974384255962 458.83008762394877L1375.8974384255962 458.83008762394877Q1382.7219501869054 458.83008762394877 1386.8445123937367 463.3426219314265Q1390.9392194505222 467.8551562389042 1390.9392194505222 473.67688259855146L1390.9392194505222 473.67688259855146Q1390.9392194505222 479.6935950085218 1386.8445123937367 484.0947087158149Q1382.7219501869054 488.495822423108 1375.8974384255962 488.495822423108L1375.8974384255962 488.495822423108Q1369.880726015626 488.495822423108 1365.674598358656 484.20612931599953Q1361.4684707016859 479.8885810588449 1361.4684707016859 473.67688259855146ZM1461.5520248175349 486.29526556946144L1461.5520248175349 486.29526556946144Q1455.925284508211 486.29526556946144 1449.9085720982407 486.1002795191383Q1443.8918596882704 485.9052934688152 1436.872361876638 485.9052934688152L1436.872361876638 485.9052934688152Q1430.4656773660217 485.9052934688152 1423.9475722552202 486.1002795191383Q1417.429467144419 486.29526556946144 1411.4127547344488 486.29526556946144L1411.4127547344488 486.29526556946144Q1410.7999414334336 483.0919233141532 1411.4127547344488 480.08356710916803L1411.4127547344488 480.08356710916803Q1418.237266495758 479.6935950085218 1421.440608751066 478.77437505699857Q1424.6439510063742 477.8830102555214 1425.6467364080363 474.87465405053626Q1426.649521809698 471.8662978455511 1426.649521809698 465.2367721345653L1426.649521809698 465.2367721345653L1426.649521809698 420.306415110111Q1426.649521809698 412.5069730971865 1426.0367085086823 408.6908175408628Q1425.451750357713 404.874661984539 1422.3319735525433 403.3704838820464Q1419.2400518974196 401.86630577955384 1411.607740784772 400.8635203778921L1411.607740784772 400.8635203778921Q1410.9949274837568 398.05015022323005 1411.607740784772 395.6546073192604L1411.607740784772 395.6546073192604Q1420.4378233494044 394.0390086165832 1428.460106562698 391.64346571261353Q1436.482389775992 389.2200676585977 1443.8918596882704 386.43455265398177L1443.8918596882704 386.43455265398177L1447.3180431439478 387.63232410596663Q1447.0952019435786 393.84402256626004 1447.0116364934402 399.2479216752149Q1446.9002158932553 404.6796759342159 1446.9002158932553 409.49861689220137L1446.9002158932553 409.49861689220137L1446.9002158932553 463.2312013312419Q1446.9002158932553 471.0584984942125 1447.8194358447786 474.4568267998439Q1448.7108006462558 477.8830102555214 1451.8305774514256 478.77437505699857Q1454.922499106549 479.6935950085218 1461.5520248175349 480.08356710916803L1461.5520248175349 480.08356710916803Q1462.136982968504 483.0919233141532 1461.5520248175349 486.29526556946144ZM1421.440608751066 352.33984899748333L1421.440608751066 352.33984899748333Q1421.440608751066 346.5181226378361 1425.5353158078515 342.50698103118924Q1429.6578780146829 338.49583942454234 1435.4796043743304 338.49583942454234L1435.4796043743304 338.49583942454234Q1441.0784895336083 338.49583942454234 1445.2010517404397 342.50698103118924Q1449.323613947271 346.5181226378361 1449.323613947271 352.117007797114L1449.323613947271 352.117007797114Q1449.323613947271 357.35377600579193 1445.3124723406245 361.6434691129004Q1441.3013307339775 365.961017370055 1435.061777123638 365.961017370055L1435.061777123638 365.961017370055Q1429.46289196436 365.961017370055 1425.451750357713 361.9498757634081Q1421.440608751066 357.93873415676126 1421.440608751066 352.33984899748333ZM1522.1091210178843 488.495822423108L1522.1091210178843 488.495822423108Q1507.4851672436507 488.495822423108 1496.5380932755106 482.2005585126761Q1485.618874457416 475.877439452198 1479.6021620474457 464.73537943373447Q1473.5854496374754 453.62117456531706 1473.5854496374754 439.1643516913606L1473.5854496374754 439.1643516913606Q1473.5854496374754 423.5376125154654 1479.9085686979538 411.89415979617104Q1486.2038326083857 400.2507070768766 1497.6522992773566 393.84402256626004Q1509.072910796282 387.4373380556435 1523.9197057708848 387.4373380556435L1523.9197057708848 387.4373380556435Q1538.5715146951643 387.4373380556435 1549.379312913074 393.84402256626004Q1560.2149662810298 400.2507070768766 1566.231678691 411.5041876955248Q1572.2483911009704 422.7298131641268 1572.2483911009704 436.96379483771403L1572.2483911009704 436.96379483771403Q1572.2483911009704 451.6156037619936 1565.9252720404925 463.3426219314265Q1559.63000813006 475.0696401008594 1548.376527511412 481.7827312619837Q1537.1509020428102 488.495822423108 1522.1091210178843 488.495822423108ZM1496.2316866250026 436.7688087873909L1496.2316866250026 436.7688087873909Q1496.2316866250026 457.21448892127154 1502.9726329361733 469.1643482910737Q1509.6857240972977 481.0863525108297 1523.1119064195464 481.0863525108297L1523.1119064195464 481.0863525108297Q1535.9531305908254 481.0863525108297 1542.7776423521345 469.749306442043Q1549.6021541134432 458.41226037325634 1549.6021541134432 439.3593377416837L1549.6021541134432 439.3593377416837Q1549.6021541134432 419.1086436581262 1542.7776423521345 407.07521883818555Q1535.9531305908254 395.0417940182449 1522.9169203692231 395.0417940182449L1522.9169203692231 395.0417940182449Q1510.0756961979437 395.0417940182449 1503.167618986496 406.0724334365238Q1496.2316866250026 417.10307285480275 1496.2316866250026 436.7688087873909Z " fill="#fad744" transform="matrix(0.5565278727239694,0,0,0.5565278727239694,0,69.87806397933136)"/></g></svg>